<mxfile host="app.diagrams.net" modified="2020-06-15T20:25:11.088Z" agent="5.0 (iPad; CPU OS 13_5 like Mac OS X) AppleWebKit/605.1.15 (KHTML, like Gecko) CriOS/83.0.4103.88 Mobile/15E148 Safari/604.1" etag="6IsbLLGv8Q1jhGV6ckmJ" version="13.2.4" type="github">
  <diagram id="T-hf9wB2Y6zTXp4I7SSA" name="Page-1">
    <mxGraphModel dx="843" dy="2055" grid="1" gridSize="10" guides="1" tooltips="1" connect="1" arrows="1" fold="1" page="1" pageScale="1" pageWidth="827" pageHeight="1169" math="0" shadow="0">
      <root>
        <mxCell id="0" />
        <mxCell id="1" parent="0" />
        <mxCell id="37TbOSURzDW1tr7-hB5s-5" value="" style="verticalLabelPosition=bottom;verticalAlign=top;html=1;shadow=0;dashed=0;strokeWidth=1;shape=mxgraph.android.phone2;strokeColor=#c0c0c0;" vertex="1" parent="1">
          <mxGeometry x="50" y="200" width="200" height="390" as="geometry" />
        </mxCell>
        <mxCell id="37TbOSURzDW1tr7-hB5s-6" value="" style="rounded=0;whiteSpace=wrap;html=1;" vertex="1" parent="1">
          <mxGeometry x="60" y="510" width="180" height="40" as="geometry" />
        </mxCell>
        <mxCell id="37TbOSURzDW1tr7-hB5s-7" value="" style="rounded=1;whiteSpace=wrap;html=1;" vertex="1" parent="1">
          <mxGeometry x="70" y="520" width="30" height="20" as="geometry" />
        </mxCell>
        <mxCell id="37TbOSURzDW1tr7-hB5s-11" value="" style="rounded=1;whiteSpace=wrap;html=1;" vertex="1" parent="1">
          <mxGeometry x="80" y="330" width="140" height="100" as="geometry" />
        </mxCell>
        <mxCell id="37TbOSURzDW1tr7-hB5s-12" value="Твои бонусы: &lt;b&gt;500&lt;/b&gt;" style="text;html=1;strokeColor=none;fillColor=none;align=center;verticalAlign=middle;whiteSpace=wrap;rounded=0;" vertex="1" parent="1">
          <mxGeometry x="90" y="340" width="110" height="30" as="geometry" />
        </mxCell>
        <mxCell id="37TbOSURzDW1tr7-hB5s-13" value="Визитов : 7" style="text;html=1;align=center;verticalAlign=middle;resizable=0;points=[];autosize=1;" vertex="1" parent="1">
          <mxGeometry x="90" y="370" width="80" height="20" as="geometry" />
        </mxCell>
        <mxCell id="37TbOSURzDW1tr7-hB5s-14" value="Скидка:8%" style="text;html=1;strokeColor=none;fillColor=none;align=center;verticalAlign=middle;whiteSpace=wrap;rounded=0;" vertex="1" parent="1">
          <mxGeometry x="110" y="390" width="40" height="20" as="geometry" />
        </mxCell>
        <mxCell id="37TbOSURzDW1tr7-hB5s-15" value="" style="rounded=0;whiteSpace=wrap;html=1;" vertex="1" parent="1">
          <mxGeometry x="60" y="240" width="180" height="30" as="geometry" />
        </mxCell>
        <mxCell id="37TbOSURzDW1tr7-hB5s-17" value="" style="rounded=0;whiteSpace=wrap;html=1;" vertex="1" parent="1">
          <mxGeometry x="70" y="245" width="20" height="20" as="geometry" />
        </mxCell>
        <mxCell id="37TbOSURzDW1tr7-hB5s-18" value="" style="verticalLabelPosition=bottom;verticalAlign=top;html=1;shadow=0;dashed=0;strokeWidth=1;shape=mxgraph.android.phone2;strokeColor=#c0c0c0;" vertex="1" parent="1">
          <mxGeometry x="314" y="200" width="200" height="384" as="geometry" />
        </mxCell>
        <mxCell id="37TbOSURzDW1tr7-hB5s-19" value="" style="rounded=0;whiteSpace=wrap;html=1;" vertex="1" parent="1">
          <mxGeometry x="319" y="510" width="190" height="40" as="geometry" />
        </mxCell>
        <mxCell id="37TbOSURzDW1tr7-hB5s-20" value="" style="rounded=0;whiteSpace=wrap;html=1;" vertex="1" parent="1">
          <mxGeometry x="374" y="520" width="40" height="20" as="geometry" />
        </mxCell>
        <mxCell id="37TbOSURzDW1tr7-hB5s-21" value="" style="endArrow=classic;html=1;" edge="1" parent="1" target="37TbOSURzDW1tr7-hB5s-18">
          <mxGeometry width="50" height="50" relative="1" as="geometry">
            <mxPoint x="100" y="540" as="sourcePoint" />
            <mxPoint x="150" y="490" as="targetPoint" />
          </mxGeometry>
        </mxCell>
        <mxCell id="37TbOSURzDW1tr7-hB5s-22" value="QR Code" style="rounded=0;whiteSpace=wrap;html=1;" vertex="1" parent="1">
          <mxGeometry x="334" y="280" width="166" height="60" as="geometry" />
        </mxCell>
        <mxCell id="37TbOSURzDW1tr7-hB5s-23" value="Покажите этот код вашему официанту" style="text;html=1;strokeColor=none;fillColor=none;align=center;verticalAlign=middle;whiteSpace=wrap;rounded=0;" vertex="1" parent="1">
          <mxGeometry x="354" y="350" width="120" height="60" as="geometry" />
        </mxCell>
        <mxCell id="37TbOSURzDW1tr7-hB5s-25" value="&lt;font style=&quot;font-size: 8px&quot;&gt;Сode&lt;/font&gt;" style="text;html=1;strokeColor=none;fillColor=none;align=center;verticalAlign=middle;whiteSpace=wrap;rounded=0;" vertex="1" parent="1">
          <mxGeometry x="65" y="520" width="40" height="20" as="geometry" />
        </mxCell>
        <mxCell id="37TbOSURzDW1tr7-hB5s-26" value="Menu" style="text;html=1;strokeColor=none;fillColor=none;align=center;verticalAlign=middle;whiteSpace=wrap;rounded=0;" vertex="1" parent="1">
          <mxGeometry x="374" y="515" width="40" height="30" as="geometry" />
        </mxCell>
        <mxCell id="37TbOSURzDW1tr7-hB5s-27" value="" style="verticalLabelPosition=bottom;verticalAlign=top;html=1;shadow=0;dashed=0;strokeWidth=1;shape=mxgraph.android.phone2;strokeColor=#c0c0c0;" vertex="1" parent="1">
          <mxGeometry x="580" y="200" width="200" height="380" as="geometry" />
        </mxCell>
        <mxCell id="37TbOSURzDW1tr7-hB5s-29" value="" style="rounded=0;whiteSpace=wrap;html=1;" vertex="1" parent="1">
          <mxGeometry x="590" y="510" width="180" height="30" as="geometry" />
        </mxCell>
        <mxCell id="37TbOSURzDW1tr7-hB5s-31" value="Invite" style="rounded=1;whiteSpace=wrap;html=1;" vertex="1" parent="1">
          <mxGeometry x="730" y="515" width="30" height="20" as="geometry" />
        </mxCell>
        <mxCell id="37TbOSURzDW1tr7-hB5s-32" value="Makarons. &amp;nbsp; &amp;nbsp; &amp;nbsp; &amp;nbsp; Pizza" style="rounded=1;whiteSpace=wrap;html=1;" vertex="1" parent="1">
          <mxGeometry x="590" y="260" width="180" height="40" as="geometry" />
        </mxCell>
        <mxCell id="37TbOSURzDW1tr7-hB5s-33" value="Carbonara" style="text;html=1;strokeColor=none;fillColor=none;align=center;verticalAlign=middle;whiteSpace=wrap;rounded=0;" vertex="1" parent="1">
          <mxGeometry x="600" y="310" width="40" height="40" as="geometry" />
        </mxCell>
        <mxCell id="37TbOSURzDW1tr7-hB5s-34" value="Bolek" style="text;html=1;strokeColor=none;fillColor=none;align=center;verticalAlign=middle;whiteSpace=wrap;rounded=0;" vertex="1" parent="1">
          <mxGeometry x="590" y="345" width="40" height="20" as="geometry" />
        </mxCell>
        <mxCell id="37TbOSURzDW1tr7-hB5s-35" value="" style="endArrow=classic;html=1;exitX=1;exitY=0.5;exitDx=0;exitDy=0;" edge="1" parent="1" source="37TbOSURzDW1tr7-hB5s-26">
          <mxGeometry width="50" height="50" relative="1" as="geometry">
            <mxPoint x="530" y="520" as="sourcePoint" />
            <mxPoint x="580" y="470" as="targetPoint" />
          </mxGeometry>
        </mxCell>
        <mxCell id="37TbOSURzDW1tr7-hB5s-36" value="" style="verticalLabelPosition=bottom;verticalAlign=top;html=1;shadow=0;dashed=0;strokeWidth=1;shape=mxgraph.android.phone2;strokeColor=#c0c0c0;" vertex="1" parent="1">
          <mxGeometry x="600" y="640" width="200" height="390" as="geometry" />
        </mxCell>
        <mxCell id="37TbOSURzDW1tr7-hB5s-37" value="" style="endArrow=classic;html=1;exitX=0.85;exitY=0.895;exitDx=0;exitDy=0;exitPerimeter=0;entryX=0.5;entryY=0;entryDx=0;entryDy=0;entryPerimeter=0;" edge="1" parent="1" source="37TbOSURzDW1tr7-hB5s-27" target="37TbOSURzDW1tr7-hB5s-36">
          <mxGeometry width="50" height="50" relative="1" as="geometry">
            <mxPoint x="590" y="730" as="sourcePoint" />
            <mxPoint x="640" y="680" as="targetPoint" />
          </mxGeometry>
        </mxCell>
        <mxCell id="37TbOSURzDW1tr7-hB5s-38" value="Your code : &lt;b&gt;aghhhgy&lt;/b&gt;" style="text;html=1;strokeColor=none;fillColor=none;align=center;verticalAlign=middle;whiteSpace=wrap;rounded=0;" vertex="1" parent="1">
          <mxGeometry x="640" y="740" width="120" height="20" as="geometry" />
        </mxCell>
        <mxCell id="37TbOSURzDW1tr7-hB5s-39" value="" style="rounded=1;whiteSpace=wrap;html=1;" vertex="1" parent="1">
          <mxGeometry x="620" y="810" width="160" height="30" as="geometry" />
        </mxCell>
        <mxCell id="37TbOSURzDW1tr7-hB5s-40" value="Enter bonus code" style="text;html=1;strokeColor=none;fillColor=none;align=center;verticalAlign=middle;whiteSpace=wrap;rounded=0;" vertex="1" parent="1">
          <mxGeometry x="610" y="770" width="180" height="40" as="geometry" />
        </mxCell>
        <mxCell id="37TbOSURzDW1tr7-hB5s-41" value="Sumbit" style="rounded=1;whiteSpace=wrap;html=1;" vertex="1" parent="1">
          <mxGeometry x="665" y="860" width="70" height="50" as="geometry" />
        </mxCell>
        <mxCell id="37TbOSURzDW1tr7-hB5s-42" value="" style="rounded=1;whiteSpace=wrap;html=1;" vertex="1" parent="1">
          <mxGeometry x="610" y="950" width="180" height="40" as="geometry" />
        </mxCell>
        <mxCell id="37TbOSURzDW1tr7-hB5s-43" value="Promo" style="rounded=1;whiteSpace=wrap;html=1;" vertex="1" parent="1">
          <mxGeometry x="700" y="960" width="60" height="20" as="geometry" />
        </mxCell>
        <mxCell id="37TbOSURzDW1tr7-hB5s-45" value="" style="verticalLabelPosition=bottom;verticalAlign=top;html=1;shadow=0;dashed=0;strokeWidth=1;shape=mxgraph.android.phone2;strokeColor=#c0c0c0;" vertex="1" parent="1">
          <mxGeometry x="290" y="640" width="200" height="390" as="geometry" />
        </mxCell>
        <mxCell id="37TbOSURzDW1tr7-hB5s-49" value="" style="edgeStyle=orthogonalEdgeStyle;rounded=0;orthogonalLoop=1;jettySize=auto;html=1;" edge="1" parent="1" target="37TbOSURzDW1tr7-hB5s-48">
          <mxGeometry relative="1" as="geometry">
            <mxPoint x="394" y="780" as="sourcePoint" />
          </mxGeometry>
        </mxCell>
        <mxCell id="37TbOSURzDW1tr7-hB5s-50" value="" style="edgeStyle=orthogonalEdgeStyle;rounded=0;orthogonalLoop=1;jettySize=auto;html=1;" edge="1" parent="1" source="37TbOSURzDW1tr7-hB5s-51">
          <mxGeometry relative="1" as="geometry">
            <mxPoint x="394" y="780" as="targetPoint" />
          </mxGeometry>
        </mxCell>
        <mxCell id="37TbOSURzDW1tr7-hB5s-48" value="Уникальное предложение, купи 2 супа и заплати за 2" style="text;html=1;strokeColor=none;fillColor=none;align=center;verticalAlign=middle;whiteSpace=wrap;rounded=0;" vertex="1" parent="1">
          <mxGeometry x="319" y="700" width="130" height="80" as="geometry" />
        </mxCell>
        <mxCell id="37TbOSURzDW1tr7-hB5s-47" value="" style="rounded=0;whiteSpace=wrap;html=1;fillColor=none;" vertex="1" parent="1">
          <mxGeometry x="324" y="710" width="120" height="60" as="geometry" />
        </mxCell>
        <mxCell id="37TbOSURzDW1tr7-hB5s-51" value="" style="rounded=0;whiteSpace=wrap;html=1;fillColor=none;" vertex="1" parent="1">
          <mxGeometry x="324" y="800" width="120" height="60" as="geometry" />
        </mxCell>
        <mxCell id="37TbOSURzDW1tr7-hB5s-52" value="" style="edgeStyle=orthogonalEdgeStyle;rounded=0;orthogonalLoop=1;jettySize=auto;html=1;" edge="1" parent="1" source="37TbOSURzDW1tr7-hB5s-48" target="37TbOSURzDW1tr7-hB5s-51">
          <mxGeometry relative="1" as="geometry">
            <mxPoint x="384" y="780" as="sourcePoint" />
            <mxPoint x="394" y="780" as="targetPoint" />
          </mxGeometry>
        </mxCell>
        <mxCell id="37TbOSURzDW1tr7-hB5s-53" value="Купи 3 пива— получи 2" style="text;html=1;strokeColor=none;fillColor=none;align=center;verticalAlign=middle;whiteSpace=wrap;rounded=0;" vertex="1" parent="1">
          <mxGeometry x="334" y="800" width="90" height="70" as="geometry" />
        </mxCell>
      </root>
    </mxGraphModel>
  </diagram>
</mxfile>
